<svg width="201mm" height="221mm" viewBox="0 0 201 221" xmlns="http://www.w3.org/2000/svg" version="1.1" preserveAspectRatio="xMidYMid meet"><g id="svgGroup" stroke-linecap="round" fill-rule="evenodd" font-size="9pt" stroke="#000" stroke-width="0.25mm" fill="none" style="stroke:#000;stroke-width:0.25mm;fill:none"><path d="M 0 112 L 0 125.625 L 3 125.625 L 3 137.625 L 4.95 137.625 L 4.95 136.375 L 7.6 136.375 L 7.6 137.625 L 10.25 137.625 L 10.25 140.875 L 7.6 140.875 L 7.6 142.125 L 4.95 142.125 L 4.95 140.875 L 3 140.875 L 3 152.875 L 0 152.875 L 0 180.125 L 3 180.125 L 3 192.125 L 4.95 192.125 L 4.95 190.875 L 7.6 190.875 L 7.6 192.125 L 10.25 192.125 L 10.25 195.375 L 7.6 195.375 L 7.6 196.625 L 4.95 196.625 L 4.95 195.375 L 3 195.375 L 3 207.375 L 0 207.375 L 0 221 L 10.25 221 L 10.25 218 L 18.875 218 L 18.875 216.05 L 17.625 216.05 L 17.625 213.4 L 18.875 213.4 L 18.875 210.75 L 22.125 210.75 L 22.125 213.4 L 23.375 213.4 L 23.375 216.05 L 22.125 216.05 L 22.125 218 L 30.75 218 L 30.75 221 L 51.25 221 L 51.25 218 L 59.875 218 L 59.875 216.05 L 58.625 216.05 L 58.625 213.4 L 59.875 213.4 L 59.875 210.75 L 63.125 210.75 L 63.125 213.4 L 64.375 213.4 L 64.375 216.05 L 63.125 216.05 L 63.125 218 L 71.75 218 L 71.75 221 L 82 221 L 82 207.375 L 79 207.375 L 79 195.375 L 77.05 195.375 L 77.05 196.625 L 74.4 196.625 L 74.4 195.375 L 71.75 195.375 L 71.75 192.125 L 74.4 192.125 L 74.4 190.875 L 77.05 190.875 L 77.05 192.125 L 79 192.125 L 79 180.125 L 82 180.125 L 82 152.875 L 79 152.875 L 79 140.875 L 77.05 140.875 L 77.05 142.125 L 74.4 142.125 L 74.4 140.875 L 71.75 140.875 L 71.75 137.625 L 74.4 137.625 L 74.4 136.375 L 77.05 136.375 L 77.05 137.625 L 79 137.625 L 79 125.625 L 82 125.625 L 82 112 L 71.75 112 L 71.75 115 L 63.125 115 L 63.125 116.95 L 64.375 116.95 L 64.375 119.6 L 63.125 119.6 L 63.125 122.25 L 59.875 122.25 L 59.875 119.6 L 58.625 119.6 L 58.625 116.95 L 59.875 116.95 L 59.875 115 L 51.25 115 L 51.25 112 L 30.75 112 L 30.75 115 L 22.125 115 L 22.125 116.95 L 23.375 116.95 L 23.375 119.6 L 22.125 119.6 L 22.125 122.25 L 18.875 122.25 L 18.875 119.6 L 17.625 119.6 L 17.625 116.95 L 18.875 116.95 L 18.875 115 L 10.25 115 L 10.25 112 L 0 112 Z" id="front_outsideCutPath" stroke="#FF0000" stroke-width="0.1" style="stroke:#FF0000;stroke-width:0.1" vector-effect="non-scaling-stroke"/><path d="M 52.952 172.694 L 51.622 172.694 L 51.622 167.016 Q 51.622 165.943 51.134 165.415 Q 50.645 164.886 49.604 164.886 Q 48.227 164.886 47.586 165.631 Q 46.946 166.376 46.946 168.089 L 46.946 172.694 L 45.617 172.694 L 45.617 163.917 L 46.698 163.917 L 46.914 165.118 L 46.978 165.118 A 2.692 2.692 0 0 1 48.032 164.159 A 3.237 3.237 0 0 1 48.123 164.113 A 3.6 3.6 0 0 1 49.404 163.772 A 4.353 4.353 0 0 1 49.765 163.757 A 5.248 5.248 0 0 1 50.658 163.828 Q 51.594 163.99 52.151 164.522 A 2.304 2.304 0 0 1 52.712 165.403 Q 52.847 165.766 52.906 166.216 A 5.801 5.801 0 0 1 52.952 166.968 L 52.952 172.694 Z M 27.415 163.917 L 27.415 164.95 L 25.181 164.95 L 25.181 172.694 L 23.851 172.694 L 23.851 164.95 L 22.282 164.95 L 22.282 164.35 L 23.851 163.869 L 23.851 163.381 A 5.388 5.388 0 0 1 23.977 162.16 Q 24.366 160.495 25.958 160.206 A 4.04 4.04 0 0 1 26.678 160.146 A 4.281 4.281 0 0 1 27.284 160.192 Q 27.578 160.234 27.906 160.315 A 8.605 8.605 0 0 1 28.312 160.426 L 27.967 161.491 Q 27.421 161.315 26.988 161.264 A 2.859 2.859 0 0 0 26.654 161.243 A 1.793 1.793 0 0 0 26.222 161.292 A 1.151 1.151 0 0 0 25.541 161.743 Q 25.181 162.244 25.181 163.349 L 25.181 163.917 L 27.415 163.917 Z M 59.718 171.597 L 59.718 172.614 Q 59.523 172.708 59.161 172.772 A 4.971 4.971 0 0 1 59.082 172.786 A 5.762 5.762 0 0 1 58.706 172.835 Q 58.529 172.852 58.37 172.854 A 3.405 3.405 0 0 1 58.325 172.854 A 3.472 3.472 0 0 1 57.302 172.716 Q 56.177 172.369 55.883 171.148 A 4.178 4.178 0 0 1 55.778 170.171 L 55.778 164.95 L 54.521 164.95 L 54.521 164.31 L 55.778 163.757 L 56.339 161.883 L 57.108 161.883 L 57.108 163.917 L 59.654 163.917 L 59.654 164.95 L 57.108 164.95 L 57.108 170.115 A 2.677 2.677 0 0 0 57.146 170.585 Q 57.192 170.843 57.294 171.048 A 1.289 1.289 0 0 0 57.484 171.333 A 1.235 1.235 0 0 0 58.243 171.737 A 1.777 1.777 0 0 0 58.517 171.757 Q 58.869 171.757 59.198 171.705 Q 59.511 171.655 59.7 171.602 A 1.996 1.996 0 0 0 59.718 171.597 Z M 34.069 163.853 L 33.885 165.086 Q 33.341 164.966 32.924 164.966 A 2.303 2.303 0 0 0 31.222 165.701 A 3.151 3.151 0 0 0 31.102 165.831 A 3.036 3.036 0 0 0 30.37 167.536 A 4.035 4.035 0 0 0 30.346 167.985 L 30.346 172.694 L 29.016 172.694 L 29.016 163.917 L 30.113 163.917 L 30.266 165.543 L 30.33 165.543 A 4.489 4.489 0 0 1 30.832 164.826 A 3.429 3.429 0 0 1 31.507 164.222 A 2.65 2.65 0 0 1 33.02 163.757 Q 33.605 163.757 34.069 163.853 Z M 43.286 168.298 Q 43.286 170.444 42.205 171.649 A 3.544 3.544 0 0 1 40.12 172.779 A 5.162 5.162 0 0 1 39.218 172.854 A 4.269 4.269 0 0 1 37.978 172.679 A 3.701 3.701 0 0 1 37.128 172.301 A 3.599 3.599 0 0 1 35.816 170.905 A 4.369 4.369 0 0 1 35.719 170.716 A 4.918 4.918 0 0 1 35.306 169.375 A 6.65 6.65 0 0 1 35.222 168.298 Q 35.222 166.151 36.295 164.954 A 3.516 3.516 0 0 1 38.347 163.837 A 5.163 5.163 0 0 1 39.274 163.757 A 4.467 4.467 0 0 1 40.586 163.94 A 3.48 3.48 0 0 1 42.201 164.982 A 4.139 4.139 0 0 1 43.105 166.735 Q 43.286 167.444 43.286 168.298 Z M 36.6 168.298 A 6.732 6.732 0 0 0 36.664 169.259 Q 36.734 169.747 36.883 170.143 A 2.789 2.789 0 0 0 37.272 170.86 A 2.179 2.179 0 0 0 38.691 171.696 A 3.301 3.301 0 0 0 39.25 171.741 A 3.088 3.088 0 0 0 40.065 171.64 A 2.149 2.149 0 0 0 41.232 170.864 A 2.854 2.854 0 0 0 41.677 169.999 Q 41.909 169.288 41.909 168.298 Q 41.909 166.624 41.232 165.755 A 2.187 2.187 0 0 0 39.873 164.944 A 3.353 3.353 0 0 0 39.234 164.886 A 3.164 3.164 0 0 0 38.447 164.979 A 2.117 2.117 0 0 0 37.264 165.743 A 2.748 2.748 0 0 0 36.837 166.569 Q 36.6 167.283 36.6 168.298 Z" id="front_labelLayer" stroke="#777777" fill="#777777" style="stroke:#777777;fill:#777777" vector-effect="non-scaling-stroke"/><path d="M 88 112 L 88 125.625 L 85 125.625 L 85 137.625 L 88.25 137.625 L 88.25 139.25 L 88.25 140.875 L 85 140.875 L 85 152.875 L 88 152.875 L 88 180.125 L 85 180.125 L 85 192.125 L 88.25 192.125 L 88.25 193.75 L 88.25 195.375 L 85 195.375 L 85 207.375 L 88 207.375 L 88 221 L 95.375 221 L 95.375 218 L 98.875 218 L 98.875 216.05 L 97.625 216.05 L 97.625 213.4 L 98.875 213.4 L 98.875 210.75 L 102.125 210.75 L 102.125 213.4 L 103.375 213.4 L 103.375 216.05 L 102.125 216.05 L 102.125 218 L 105.625 218 L 105.625 221 L 113 221 L 113 207.375 L 116 207.375 L 116 195.375 L 112.75 195.375 L 112.75 193.75 L 112.75 192.125 L 116 192.125 L 116 180.125 L 113 180.125 L 113 152.875 L 116 152.875 L 116 140.875 L 112.75 140.875 L 112.75 139.25 L 112.75 137.625 L 116 137.625 L 116 125.625 L 113 125.625 L 113 112 L 105.625 112 L 105.625 115 L 102.125 115 L 102.125 116.95 L 103.375 116.95 L 103.375 119.6 L 102.125 119.6 L 102.125 122.25 L 98.875 122.25 L 98.875 119.6 L 97.625 119.6 L 97.625 116.95 L 98.875 116.95 L 98.875 115 L 95.375 115 L 95.375 112 L 88 112 Z" id="left_outsideCutPath" stroke="#FF0000" stroke-width="0.1" style="stroke:#FF0000;stroke-width:0.1" vector-effect="non-scaling-stroke"/><path d="M 102.705 165.524 L 102.705 165.914 L 101.861 165.914 L 101.861 168.842 L 101.358 168.842 L 101.358 165.914 L 100.765 165.914 L 100.765 165.687 L 101.358 165.505 L 101.358 165.321 A 2.037 2.037 0 0 1 101.406 164.859 Q 101.553 164.23 102.155 164.121 A 1.527 1.527 0 0 1 102.427 164.098 A 1.618 1.618 0 0 1 102.656 164.115 Q 102.767 164.131 102.891 164.162 A 3.253 3.253 0 0 1 103.044 164.204 L 102.914 164.606 Q 102.708 164.54 102.544 164.52 A 1.081 1.081 0 0 0 102.418 164.512 A 0.678 0.678 0 0 0 102.254 164.531 A 0.435 0.435 0 0 0 101.997 164.702 Q 101.873 164.873 101.862 165.233 A 2.373 2.373 0 0 0 101.861 165.309 L 101.861 165.524 L 102.705 165.524 Z M 100.353 166.956 L 100.353 167.273 L 98.068 167.273 A 2.017 2.017 0 0 0 98.103 167.611 Q 98.139 167.795 98.212 167.94 A 0.944 0.944 0 0 0 98.363 168.16 A 0.913 0.913 0 0 0 98.842 168.431 A 1.384 1.384 0 0 0 99.151 168.463 A 2.654 2.654 0 0 0 100.145 168.266 A 3.043 3.043 0 0 0 100.211 168.239 L 100.211 168.687 Q 99.944 168.802 99.707 168.852 A 2.11 2.11 0 0 1 99.498 168.885 Q 99.394 168.896 99.278 168.9 A 4.094 4.094 0 0 1 99.133 168.902 A 1.953 1.953 0 0 1 98.644 168.844 A 1.383 1.383 0 0 1 97.972 168.454 A 1.479 1.479 0 0 1 97.618 167.804 Q 97.557 167.574 97.548 167.301 A 2.871 2.871 0 0 1 97.547 167.21 A 2.639 2.639 0 0 1 97.596 166.687 Q 97.686 166.242 97.942 165.935 A 1.288 1.288 0 0 1 98.88 165.467 A 1.777 1.777 0 0 1 99.003 165.463 A 1.531 1.531 0 0 1 99.434 165.521 A 1.165 1.165 0 0 1 99.99 165.873 Q 100.353 166.283 100.353 166.956 Z M 104.837 168.427 L 104.837 168.811 Q 104.763 168.847 104.626 168.871 A 1.877 1.877 0 0 1 104.596 168.876 A 2.178 2.178 0 0 1 104.454 168.895 Q 104.387 168.901 104.327 168.902 A 1.287 1.287 0 0 1 104.31 168.902 Q 103.347 168.902 103.347 167.888 L 103.347 165.914 L 102.872 165.914 L 102.872 165.672 L 103.347 165.463 L 103.559 164.755 L 103.85 164.755 L 103.85 165.524 L 104.812 165.524 L 104.812 165.914 L 103.85 165.914 L 103.85 167.867 A 1.012 1.012 0 0 0 103.864 168.044 Q 103.882 168.142 103.92 168.219 A 0.487 0.487 0 0 0 103.992 168.327 A 0.467 0.467 0 0 0 104.279 168.48 A 0.672 0.672 0 0 0 104.383 168.487 A 1.65 1.65 0 0 0 104.624 168.47 A 1.522 1.522 0 0 0 104.64 168.468 Q 104.764 168.448 104.837 168.427 Z M 96.666 164.131 L 96.666 168.842 L 96.163 168.842 L 96.163 164.131 L 96.666 164.131 Z M 98.08 166.865 L 99.814 166.865 A 1.712 1.712 0 0 0 99.794 166.589 Q 99.748 166.31 99.602 166.137 Q 99.39 165.884 98.997 165.884 A 0.991 0.991 0 0 0 98.711 165.923 A 0.765 0.765 0 0 0 98.36 166.144 A 0.993 0.993 0 0 0 98.162 166.477 Q 98.1 166.649 98.08 166.865 Z" id="left_labelLayer" stroke="#777777" fill="#777777" style="stroke:#777777;fill:#777777" vector-effect="non-scaling-stroke"/><path d="M 122 193 L 122 200.375 L 119 200.375 L 119 203.875 L 122.25 203.875 L 122.25 205.5 L 122.25 207.125 L 119 207.125 L 119 210.625 L 122 210.625 L 122 218 L 129.25 218 L 129.25 221 L 137.875 221 L 137.875 217.75 L 139.5 217.75 L 141.125 217.75 L 141.125 221 L 149.75 221 L 149.75 218 L 170.25 218 L 170.25 221 L 178.875 221 L 178.875 217.75 L 180.5 217.75 L 182.125 217.75 L 182.125 221 L 190.75 221 L 190.75 218 L 198 218 L 198 210.625 L 201 210.625 L 201 207.125 L 197.75 207.125 L 197.75 205.5 L 197.75 203.875 L 201 203.875 L 201 200.375 L 198 200.375 L 198 193 L 190.75 193 L 190.75 190 L 182.125 190 L 182.125 193.25 L 180.5 193.25 L 178.875 193.25 L 178.875 190 L 170.25 190 L 170.25 193 L 149.75 193 L 149.75 190 L 141.125 190 L 141.125 193.25 L 139.5 193.25 L 137.875 193.25 L 137.875 190 L 129.25 190 L 129.25 193 L 122 193 Z" id="top_outsideCutPath" stroke="#FF0000" stroke-width="0.1" style="stroke:#FF0000;stroke-width:0.1" vector-effect="non-scaling-stroke"/><path d="M 162.228 206.372 L 162.192 206.372 A 4.756 4.756 0 0 1 162.223 206.723 A 3.985 3.985 0 0 1 162.228 206.923 L 162.228 208.288 L 161.726 208.288 L 161.726 203.481 L 162.134 203.481 L 162.204 203.935 L 162.228 203.935 A 1.353 1.353 0 0 1 162.424 203.713 A 1.046 1.046 0 0 1 162.679 203.541 A 1.259 1.259 0 0 1 163.04 203.436 A 1.629 1.629 0 0 1 163.27 203.42 A 1.54 1.54 0 0 1 163.705 203.478 A 1.139 1.139 0 0 1 164.288 203.871 Q 164.581 204.24 164.635 204.851 A 3.272 3.272 0 0 1 164.647 205.137 Q 164.647 205.954 164.282 206.407 A 1.19 1.19 0 0 1 163.437 206.851 A 1.704 1.704 0 0 1 163.27 206.859 A 1.524 1.524 0 0 1 162.886 206.813 A 1.326 1.326 0 0 1 162.678 206.74 Q 162.41 206.62 162.228 206.372 Z M 157.318 206.384 L 157.318 206.768 Q 157.244 206.804 157.107 206.828 A 1.877 1.877 0 0 1 157.077 206.834 A 2.178 2.178 0 0 1 156.935 206.852 Q 156.868 206.858 156.808 206.859 A 1.287 1.287 0 0 1 156.791 206.859 Q 155.828 206.859 155.828 205.845 L 155.828 203.871 L 155.353 203.871 L 155.353 203.629 L 155.828 203.42 L 156.04 202.712 L 156.331 202.712 L 156.331 203.481 L 157.294 203.481 L 157.294 203.871 L 156.331 203.871 L 156.331 205.824 A 1.012 1.012 0 0 0 156.345 206.002 Q 156.363 206.099 156.401 206.176 A 0.487 0.487 0 0 0 156.473 206.284 A 0.467 0.467 0 0 0 156.76 206.437 A 0.672 0.672 0 0 0 156.864 206.445 A 1.65 1.65 0 0 0 157.105 206.427 A 1.522 1.522 0 0 0 157.121 206.425 Q 157.245 206.405 157.318 206.384 Z M 160.436 206.404 A 1.402 1.402 0 0 0 160.603 206.174 Q 160.845 205.761 160.845 205.137 Q 160.845 204.347 160.434 203.883 A 1.316 1.316 0 0 0 159.824 203.489 A 1.689 1.689 0 0 0 159.328 203.42 A 1.952 1.952 0 0 0 158.977 203.45 A 1.329 1.329 0 0 0 158.202 203.873 Q 157.796 204.325 157.796 205.137 A 2.514 2.514 0 0 0 157.828 205.544 A 1.859 1.859 0 0 0 157.984 206.051 A 1.652 1.652 0 0 0 158.02 206.123 A 1.361 1.361 0 0 0 158.517 206.65 A 1.399 1.399 0 0 0 158.838 206.793 A 1.614 1.614 0 0 0 159.307 206.859 A 1.951 1.951 0 0 0 159.647 206.831 A 1.34 1.34 0 0 0 160.436 206.404 Z M 158.317 205.137 A 2.545 2.545 0 0 0 158.341 205.5 Q 158.368 205.685 158.424 205.834 A 1.054 1.054 0 0 0 158.571 206.105 A 0.824 0.824 0 0 0 159.108 206.421 A 1.248 1.248 0 0 0 159.319 206.438 A 1.167 1.167 0 0 0 159.627 206.4 A 0.812 0.812 0 0 0 160.068 206.107 Q 160.324 205.775 160.324 205.137 A 2.507 2.507 0 0 0 160.3 204.779 Q 160.274 204.598 160.219 204.45 A 1.035 1.035 0 0 0 160.068 204.176 A 0.827 0.827 0 0 0 159.554 203.869 A 1.267 1.267 0 0 0 159.313 203.847 Q 158.819 203.847 158.568 204.171 Q 158.387 204.404 158.336 204.802 A 2.656 2.656 0 0 0 158.317 205.137 Z M 162.228 205.025 L 162.228 205.137 A 3.323 3.323 0 0 0 162.245 205.48 Q 162.281 205.827 162.396 206.037 A 0.758 0.758 0 0 0 162.461 206.137 A 0.729 0.729 0 0 0 162.831 206.387 Q 162.955 206.426 163.105 206.435 A 1.616 1.616 0 0 0 163.209 206.438 A 0.847 0.847 0 0 0 163.538 206.377 Q 163.728 206.297 163.864 206.117 A 1.002 1.002 0 0 0 163.883 206.09 A 1.215 1.215 0 0 0 164.049 205.735 Q 164.126 205.475 164.126 205.131 A 2.536 2.536 0 0 0 164.102 204.771 Q 164.05 204.406 163.883 204.179 A 0.782 0.782 0 0 0 163.311 203.853 A 1.081 1.081 0 0 0 163.197 203.847 A 1.448 1.448 0 0 0 162.926 203.871 Q 162.776 203.899 162.66 203.963 A 0.664 0.664 0 0 0 162.461 204.129 A 0.861 0.861 0 0 0 162.327 204.374 Q 162.232 204.631 162.228 205.025 Z" id="top_labelLayer" stroke="#777777" fill="#777777" style="stroke:#777777;fill:#777777" vector-effect="non-scaling-stroke"/><path d="M 0 0 L 0 13.625 L 3 13.625 L 3 25.625 L 4.95 25.625 L 4.95 24.375 L 7.6 24.375 L 7.6 25.625 L 10.25 25.625 L 10.25 28.875 L 7.6 28.875 L 7.6 30.125 L 4.95 30.125 L 4.95 28.875 L 3 28.875 L 3 40.875 L 0 40.875 L 0 68.125 L 3 68.125 L 3 80.125 L 4.95 80.125 L 4.95 78.875 L 7.6 78.875 L 7.6 80.125 L 10.25 80.125 L 10.25 83.375 L 7.6 83.375 L 7.6 84.625 L 4.95 84.625 L 4.95 83.375 L 3 83.375 L 3 95.375 L 0 95.375 L 0 109 L 10.25 109 L 10.25 106 L 18.875 106 L 18.875 104.05 L 17.625 104.05 L 17.625 101.4 L 18.875 101.4 L 18.875 98.75 L 22.125 98.75 L 22.125 101.4 L 23.375 101.4 L 23.375 104.05 L 22.125 104.05 L 22.125 106 L 30.75 106 L 30.75 109 L 51.25 109 L 51.25 106 L 59.875 106 L 59.875 104.05 L 58.625 104.05 L 58.625 101.4 L 59.875 101.4 L 59.875 98.75 L 63.125 98.75 L 63.125 101.4 L 64.375 101.4 L 64.375 104.05 L 63.125 104.05 L 63.125 106 L 71.75 106 L 71.75 109 L 82 109 L 82 95.375 L 79 95.375 L 79 83.375 L 77.05 83.375 L 77.05 84.625 L 74.4 84.625 L 74.4 83.375 L 71.75 83.375 L 71.75 80.125 L 74.4 80.125 L 74.4 78.875 L 77.05 78.875 L 77.05 80.125 L 79 80.125 L 79 68.125 L 82 68.125 L 82 40.875 L 79 40.875 L 79 28.875 L 77.05 28.875 L 77.05 30.125 L 74.4 30.125 L 74.4 28.875 L 71.75 28.875 L 71.75 25.625 L 74.4 25.625 L 74.4 24.375 L 77.05 24.375 L 77.05 25.625 L 79 25.625 L 79 13.625 L 82 13.625 L 82 0 L 71.75 0 L 71.75 3 L 63.125 3 L 63.125 4.95 L 64.375 4.95 L 64.375 7.6 L 63.125 7.6 L 63.125 10.25 L 59.875 10.25 L 59.875 7.6 L 58.625 7.6 L 58.625 4.95 L 59.875 4.95 L 59.875 3 L 51.25 3 L 51.25 0 L 30.75 0 L 30.75 3 L 22.125 3 L 22.125 4.95 L 23.375 4.95 L 23.375 7.6 L 22.125 7.6 L 22.125 10.25 L 18.875 10.25 L 18.875 7.6 L 17.625 7.6 L 17.625 4.95 L 18.875 4.95 L 18.875 3 L 10.25 3 L 10.25 0 L 0 0 Z" id="back_outsideCutPath" stroke="#FF0000" stroke-width="0.1" style="stroke:#FF0000;stroke-width:0.1" vector-effect="non-scaling-stroke"/><path d="M 52.227 56.158 L 52.291 56.158 A 7.869 7.869 0 0 1 52.486 55.894 Q 52.71 55.603 53.03 55.231 A 28.564 28.564 0 0 1 53.34 54.876 L 56.175 51.873 L 57.752 51.873 L 54.197 55.613 L 58.001 60.65 L 56.391 60.65 L 53.292 56.502 L 52.291 57.367 L 52.291 60.65 L 50.978 60.65 L 50.978 48.19 L 52.291 48.19 L 52.291 54.796 A 8.858 8.858 0 0 1 52.287 55.046 Q 52.275 55.467 52.227 56.158 Z M 25.329 59.521 L 25.233 59.521 L 24.952 60.65 L 23.999 60.65 L 23.999 48.19 L 25.329 48.19 L 25.329 51.217 A 27.715 27.715 0 0 1 25.314 52.153 Q 25.299 52.596 25.269 52.99 A 16.623 16.623 0 0 1 25.265 53.042 L 25.329 53.042 A 3.022 3.022 0 0 1 27.535 51.761 A 4.54 4.54 0 0 1 28.083 51.729 A 4.063 4.063 0 0 1 29.227 51.882 A 3.041 3.041 0 0 1 30.77 52.91 A 3.917 3.917 0 0 1 31.457 54.233 Q 31.626 54.778 31.689 55.431 A 8.532 8.532 0 0 1 31.727 56.254 A 7.794 7.794 0 0 1 31.624 57.565 Q 31.504 58.264 31.246 58.824 A 3.736 3.736 0 0 1 30.762 59.613 A 3.147 3.147 0 0 1 28.525 60.789 A 4.508 4.508 0 0 1 28.083 60.81 A 4.032 4.032 0 0 1 27.07 60.687 A 3.508 3.508 0 0 1 26.518 60.494 Q 25.809 60.177 25.329 59.521 Z M 40.431 60.65 L 39.446 60.65 L 39.182 59.401 L 39.118 59.401 A 5.511 5.511 0 0 1 38.672 59.9 Q 38.432 60.136 38.193 60.3 A 2.449 2.449 0 0 1 37.809 60.518 A 3.065 3.065 0 0 1 37.176 60.718 Q 36.868 60.781 36.513 60.801 A 5.982 5.982 0 0 1 36.179 60.81 Q 34.874 60.81 34.133 60.137 A 2.185 2.185 0 0 1 33.474 58.985 A 3.345 3.345 0 0 1 33.393 58.224 Q 33.393 55.651 37.375 55.448 A 12.984 12.984 0 0 1 37.645 55.437 L 39.134 55.389 L 39.134 54.844 A 3.818 3.818 0 0 0 39.097 54.292 Q 39.056 54.01 38.968 53.783 A 1.484 1.484 0 0 0 38.69 53.319 A 1.349 1.349 0 0 0 38.137 52.958 Q 37.916 52.878 37.642 52.846 A 3.284 3.284 0 0 0 37.268 52.826 Q 36.171 52.826 34.786 53.499 L 34.378 52.482 Q 35.026 52.13 35.799 51.929 A 6.156 6.156 0 0 1 37.348 51.729 A 5.614 5.614 0 0 1 38.204 51.79 Q 39.141 51.935 39.675 52.426 Q 40.268 52.972 40.396 54.036 A 5.231 5.231 0 0 1 40.431 54.66 L 40.431 60.65 Z M 49.024 52.17 L 48.615 53.299 Q 48.175 53.123 47.654 53.006 A 5.491 5.491 0 0 0 47.237 52.929 Q 47.033 52.9 46.852 52.893 A 2.947 2.947 0 0 0 46.734 52.89 Q 44.059 52.89 44.059 56.302 A 6.438 6.438 0 0 0 44.123 57.239 Q 44.193 57.714 44.34 58.101 A 2.757 2.757 0 0 0 44.712 58.784 A 2.111 2.111 0 0 0 46.079 59.601 A 3.216 3.216 0 0 0 46.646 59.649 A 5.565 5.565 0 0 0 48.18 59.426 A 6.87 6.87 0 0 0 48.896 59.176 L 48.896 60.354 Q 48.139 60.746 47.046 60.801 A 7.29 7.29 0 0 1 46.678 60.81 A 4.968 4.968 0 0 1 45.469 60.671 A 3.369 3.369 0 0 1 43.727 59.637 Q 42.824 58.624 42.701 56.884 A 8.038 8.038 0 0 1 42.682 56.318 Q 42.682 54.723 43.238 53.654 A 3.665 3.665 0 0 1 43.743 52.914 A 3.442 3.442 0 0 1 45.627 51.83 A 5.218 5.218 0 0 1 46.766 51.713 Q 47.398 51.713 48.031 51.849 A 6.635 6.635 0 0 1 48.4 51.939 Q 48.77 52.041 49.016 52.166 A 1.966 1.966 0 0 1 49.024 52.17 Z M 27.891 52.842 Q 26.53 52.842 25.929 53.623 A 2.276 2.276 0 0 0 25.6 54.251 Q 25.329 55.011 25.329 56.254 A 8.789 8.789 0 0 0 25.372 57.162 Q 25.468 58.079 25.774 58.636 A 2.005 2.005 0 0 0 25.945 58.9 A 1.928 1.928 0 0 0 26.924 59.56 Q 27.251 59.663 27.649 59.688 A 4.274 4.274 0 0 0 27.923 59.697 A 2.65 2.65 0 0 0 28.676 59.596 A 1.912 1.912 0 0 0 29.749 58.804 A 3.051 3.051 0 0 0 30.127 57.987 Q 30.245 57.6 30.301 57.13 A 7.617 7.617 0 0 0 30.35 56.238 A 7.854 7.854 0 0 0 30.302 55.343 Q 30.181 54.287 29.749 53.683 A 1.939 1.939 0 0 0 28.515 52.902 A 3.074 3.074 0 0 0 27.891 52.842 Z M 39.102 57.126 L 39.102 56.334 L 37.773 56.39 Q 36.449 56.437 35.742 56.749 A 2.042 2.042 0 0 0 35.487 56.882 A 1.418 1.418 0 0 0 34.811 57.911 A 2.1 2.1 0 0 0 34.786 58.24 Q 34.786 58.873 35.123 59.241 A 1.184 1.184 0 0 0 35.222 59.337 Q 35.599 59.662 36.236 59.706 A 2.99 2.99 0 0 0 36.444 59.713 A 3.66 3.66 0 0 0 37.234 59.633 Q 37.785 59.511 38.191 59.205 A 2.219 2.219 0 0 0 38.393 59.032 Q 39.102 58.352 39.102 57.126 Z" id="back_labelLayer" stroke="#777777" fill="#777777" style="stroke:#777777;fill:#777777" vector-effect="non-scaling-stroke"/><path d="M 88 0 L 88 13.625 L 85 13.625 L 85 25.625 L 88.25 25.625 L 88.25 27.25 L 88.25 28.875 L 85 28.875 L 85 40.875 L 88 40.875 L 88 68.125 L 85 68.125 L 85 80.125 L 88.25 80.125 L 88.25 81.75 L 88.25 83.375 L 85 83.375 L 85 95.375 L 88 95.375 L 88 109 L 95.375 109 L 95.375 106 L 98.875 106 L 98.875 104.05 L 97.625 104.05 L 97.625 101.4 L 98.875 101.4 L 98.875 98.75 L 102.125 98.75 L 102.125 101.4 L 103.375 101.4 L 103.375 104.05 L 102.125 104.05 L 102.125 106 L 105.625 106 L 105.625 109 L 113 109 L 113 95.375 L 116 95.375 L 116 83.375 L 112.75 83.375 L 112.75 81.75 L 112.75 80.125 L 116 80.125 L 116 68.125 L 113 68.125 L 113 40.875 L 116 40.875 L 116 28.875 L 112.75 28.875 L 112.75 27.25 L 112.75 25.625 L 116 25.625 L 116 13.625 L 113 13.625 L 113 0 L 105.625 0 L 105.625 3 L 102.125 3 L 102.125 4.95 L 103.375 4.95 L 103.375 7.6 L 102.125 7.6 L 102.125 10.25 L 98.875 10.25 L 98.875 7.6 L 97.625 7.6 L 97.625 4.95 L 98.875 4.95 L 98.875 3 L 95.375 3 L 95.375 0 L 88 0 Z" id="right_outsideCutPath" stroke="#FF0000" stroke-width="0.1" style="stroke:#FF0000;stroke-width:0.1" vector-effect="non-scaling-stroke"/><path d="M 104.355 56.111 L 103.853 56.111 L 103.853 53.964 A 1.421 1.421 0 0 0 103.837 53.741 Q 103.798 53.499 103.668 53.359 Q 103.483 53.159 103.09 53.159 A 1.521 1.521 0 0 0 102.806 53.184 Q 102.648 53.214 102.527 53.28 A 0.704 0.704 0 0 0 102.325 53.443 Q 102.085 53.728 102.085 54.376 L 102.085 56.111 L 101.582 56.111 L 101.582 51.4 L 102.085 51.4 L 102.085 52.826 A 4.521 4.521 0 0 1 102.082 52.999 Q 102.079 53.081 102.072 53.151 A 1.966 1.966 0 0 1 102.061 53.253 L 102.091 53.253 A 1.004 1.004 0 0 1 102.443 52.914 A 1.227 1.227 0 0 1 102.513 52.876 A 1.29 1.29 0 0 1 102.937 52.75 A 1.631 1.631 0 0 1 103.138 52.738 A 2.039 2.039 0 0 1 103.481 52.765 Q 103.84 52.826 104.051 53.027 A 0.875 0.875 0 0 1 104.267 53.366 Q 104.319 53.507 104.34 53.682 A 2.173 2.173 0 0 1 104.355 53.946 L 104.355 56.111 Z M 99.754 52.793 L 100.901 52.793 L 100.901 53.11 L 100.287 53.183 Q 100.371 53.289 100.438 53.46 A 0.967 0.967 0 0 1 100.495 53.691 A 1.242 1.242 0 0 1 100.505 53.846 Q 100.505 54.333 100.172 54.624 A 1.115 1.115 0 0 1 99.733 54.855 Q 99.521 54.915 99.257 54.915 A 1.615 1.615 0 0 1 99.07 54.904 A 1.364 1.364 0 0 1 98.979 54.891 A 0.894 0.894 0 0 0 98.835 54.984 Q 98.76 55.044 98.717 55.113 A 0.378 0.378 0 0 0 98.658 55.317 Q 98.658 55.454 98.77 55.519 Q 98.86 55.571 99.054 55.581 A 1.912 1.912 0 0 0 99.154 55.584 L 99.742 55.584 A 2.057 2.057 0 0 1 100.054 55.606 Q 100.217 55.631 100.349 55.685 A 0.908 0.908 0 0 1 100.57 55.811 A 0.735 0.735 0 0 1 100.843 56.279 A 1.104 1.104 0 0 1 100.859 56.471 A 1.088 1.088 0 0 1 100.797 56.847 Q 100.696 57.121 100.434 57.299 A 1.194 1.194 0 0 1 100.417 57.311 Q 100.109 57.512 99.603 57.573 A 3.983 3.983 0 0 1 99.127 57.6 Q 98.476 57.6 98.124 57.358 Q 97.794 57.131 97.772 56.73 A 1.061 1.061 0 0 1 97.771 56.674 A 0.768 0.768 0 0 1 97.965 56.15 A 0.878 0.878 0 0 1 98.266 55.93 A 1.244 1.244 0 0 1 98.51 55.85 A 0.522 0.522 0 0 1 98.307 55.686 A 0.62 0.62 0 0 1 98.296 55.672 A 0.466 0.466 0 0 1 98.211 55.42 A 0.577 0.577 0 0 1 98.21 55.39 A 0.575 0.575 0 0 1 98.239 55.205 A 0.509 0.509 0 0 1 98.307 55.072 Q 98.38 54.969 98.517 54.871 A 1.579 1.579 0 0 1 98.612 54.809 A 0.881 0.881 0 0 1 98.23 54.502 A 1.092 1.092 0 0 1 98.193 54.449 A 1.039 1.039 0 0 1 98.034 53.948 A 1.268 1.268 0 0 1 98.031 53.867 A 1.452 1.452 0 0 1 98.069 53.524 A 0.955 0.955 0 0 1 98.358 53.027 A 1.067 1.067 0 0 1 98.768 52.801 Q 98.931 52.751 99.126 52.737 A 2.219 2.219 0 0 1 99.285 52.732 A 1.926 1.926 0 0 1 99.539 52.748 A 1.467 1.467 0 0 1 99.754 52.793 Z M 106.913 55.696 L 106.913 56.08 Q 106.84 56.116 106.703 56.14 A 1.877 1.877 0 0 1 106.673 56.145 A 2.178 2.178 0 0 1 106.531 56.164 Q 106.464 56.17 106.404 56.171 A 1.287 1.287 0 0 1 106.387 56.171 Q 105.424 56.171 105.424 55.157 L 105.424 53.183 L 104.949 53.183 L 104.949 52.941 L 105.424 52.732 L 105.636 52.024 L 105.927 52.024 L 105.927 52.793 L 106.889 52.793 L 106.889 53.183 L 105.927 53.183 L 105.927 55.136 A 1.012 1.012 0 0 0 105.941 55.313 Q 105.959 55.411 105.997 55.488 A 0.487 0.487 0 0 0 106.069 55.596 A 0.467 0.467 0 0 0 106.356 55.749 A 0.672 0.672 0 0 0 106.459 55.756 A 1.65 1.65 0 0 0 106.701 55.739 A 1.522 1.522 0 0 0 106.717 55.737 Q 106.841 55.717 106.913 55.696 Z M 95.997 52.768 L 95.927 53.235 A 2.215 2.215 0 0 0 95.768 53.205 Q 95.688 53.194 95.618 53.19 A 1.179 1.179 0 0 0 95.564 53.189 A 0.871 0.871 0 0 0 94.921 53.467 A 1.191 1.191 0 0 0 94.875 53.516 Q 94.589 53.843 94.589 54.33 L 94.589 56.111 L 94.087 56.111 L 94.087 52.793 L 94.501 52.793 L 94.559 53.407 L 94.583 53.407 A 1.697 1.697 0 0 1 94.773 53.136 A 1.296 1.296 0 0 1 95.028 52.908 A 1.002 1.002 0 0 1 95.6 52.732 A 2.307 2.307 0 0 1 95.807 52.741 A 1.684 1.684 0 0 1 95.997 52.768 Z M 97.12 52.793 L 97.12 56.111 L 96.617 56.111 L 96.617 52.793 L 97.12 52.793 Z M 99.581 56.035 L 98.979 56.035 Q 98.728 56.035 98.559 56.123 A 0.589 0.589 0 0 0 98.446 56.198 A 0.53 0.53 0 0 0 98.272 56.499 A 0.804 0.804 0 0 0 98.255 56.668 A 0.505 0.505 0 0 0 98.288 56.855 Q 98.336 56.975 98.453 57.057 A 0.59 0.59 0 0 0 98.482 57.076 Q 98.708 57.215 99.129 57.216 A 2.668 2.668 0 0 0 99.133 57.216 A 3.378 3.378 0 0 0 99.463 57.201 Q 99.794 57.168 100.001 57.065 A 0.835 0.835 0 0 0 100.07 57.026 A 0.733 0.733 0 0 0 100.24 56.884 A 0.549 0.549 0 0 0 100.374 56.513 A 0.68 0.68 0 0 0 100.362 56.378 Q 100.346 56.3 100.31 56.243 A 0.317 0.317 0 0 0 100.208 56.139 A 0.477 0.477 0 0 0 100.095 56.09 Q 99.916 56.035 99.581 56.035 Z M 98.64 54.284 A 0.538 0.538 0 0 0 98.724 54.382 Q 98.902 54.543 99.204 54.559 A 1.294 1.294 0 0 0 99.272 54.561 A 1.095 1.095 0 0 0 99.559 54.526 Q 99.887 54.437 99.975 54.115 A 1.018 1.018 0 0 0 100.008 53.846 A 1.081 1.081 0 0 0 99.971 53.55 Q 99.876 53.218 99.539 53.13 A 1.093 1.093 0 0 0 99.263 53.098 Q 98.992 53.098 98.816 53.21 A 0.578 0.578 0 0 0 98.718 53.289 Q 98.528 53.48 98.528 53.855 Q 98.528 54.118 98.64 54.284 Z M 96.582 51.801 A 0.557 0.557 0 0 0 96.575 51.893 A 0.593 0.593 0 0 0 96.578 51.95 Q 96.583 52.001 96.597 52.042 A 0.259 0.259 0 0 0 96.66 52.146 A 0.282 0.282 0 0 0 96.762 52.211 A 0.319 0.319 0 0 0 96.872 52.229 Q 96.993 52.229 97.081 52.146 Q 97.168 52.063 97.168 51.893 Q 97.168 51.724 97.081 51.642 Q 96.993 51.56 96.872 51.56 A 0.384 0.384 0 0 0 96.846 51.561 A 0.291 0.291 0 0 0 96.66 51.641 A 0.235 0.235 0 0 0 96.608 51.714 Q 96.59 51.753 96.582 51.801 Z" id="right_labelLayer" stroke="#777777" fill="#777777" style="stroke:#777777;fill:#777777" vector-effect="non-scaling-stroke"/><path d="M 122 159 L 122 166.375 L 119 166.375 L 119 169.875 L 122.25 169.875 L 122.25 171.5 L 122.25 173.125 L 119 173.125 L 119 176.625 L 122 176.625 L 122 184 L 129.25 184 L 129.25 187 L 137.875 187 L 137.875 183.75 L 139.5 183.75 L 141.125 183.75 L 141.125 187 L 149.75 187 L 149.75 184 L 170.25 184 L 170.25 187 L 178.875 187 L 178.875 183.75 L 180.5 183.75 L 182.125 183.75 L 182.125 187 L 190.75 187 L 190.75 184 L 198 184 L 198 176.625 L 201 176.625 L 201 173.125 L 197.75 173.125 L 197.75 171.5 L 197.75 169.875 L 201 169.875 L 201 166.375 L 198 166.375 L 198 159 L 190.75 159 L 190.75 156 L 182.125 156 L 182.125 159.25 L 180.5 159.25 L 178.875 159.25 L 178.875 156 L 170.25 156 L 170.25 159 L 149.75 159 L 149.75 156 L 141.125 156 L 141.125 159.25 L 139.5 159.25 L 137.875 159.25 L 137.875 156 L 129.25 156 L 129.25 159 L 122 159 Z" id="bottom_outsideCutPath" stroke="#FF0000" stroke-width="0.1" style="stroke:#FF0000;stroke-width:0.1" vector-effect="non-scaling-stroke"/><path d="M 170.199 173.825 L 169.697 173.825 L 169.697 171.666 Q 169.697 171.418 169.63 171.247 A 0.607 0.607 0 0 0 169.527 171.072 A 0.529 0.529 0 0 0 169.281 170.913 Q 169.159 170.873 169 170.873 A 1.293 1.293 0 0 0 168.737 170.898 Q 168.581 170.931 168.463 171.006 A 0.665 0.665 0 0 0 168.307 171.143 A 0.83 0.83 0 0 0 168.166 171.398 Q 168.084 171.629 168.083 171.967 A 2.77 2.77 0 0 0 168.083 171.972 L 168.083 173.825 L 167.58 173.825 L 167.58 171.666 Q 167.58 171.418 167.514 171.247 A 0.607 0.607 0 0 0 167.411 171.072 Q 167.241 170.873 166.881 170.873 Q 166.552 170.873 166.345 171.011 A 0.659 0.659 0 0 0 166.189 171.156 Q 165.99 171.413 165.972 171.967 A 3.499 3.499 0 0 0 165.97 172.084 L 165.97 173.825 L 165.467 173.825 L 165.467 170.507 L 165.876 170.507 L 165.958 170.961 L 165.982 170.961 A 0.988 0.988 0 0 1 166.383 170.583 A 1.193 1.193 0 0 1 166.854 170.45 A 1.441 1.441 0 0 1 166.963 170.446 A 1.645 1.645 0 0 1 167.333 170.485 Q 167.803 170.594 167.98 171.009 L 168.004 171.009 A 1.049 1.049 0 0 1 168.399 170.617 A 1.26 1.26 0 0 1 168.434 170.598 A 1.272 1.272 0 0 1 168.901 170.456 A 1.586 1.586 0 0 1 169.076 170.446 A 1.747 1.747 0 0 1 169.393 170.473 Q 169.569 170.506 169.706 170.578 A 0.828 0.828 0 0 1 169.919 170.736 Q 170.199 171.025 170.199 171.66 L 170.199 173.825 Z M 150.303 173.398 L 150.267 173.398 L 150.161 173.825 L 149.801 173.825 L 149.801 169.114 L 150.303 169.114 L 150.303 170.259 A 10.478 10.478 0 0 1 150.298 170.613 Q 150.292 170.78 150.281 170.929 A 6.259 6.259 0 0 1 150.279 170.949 L 150.303 170.949 A 1.143 1.143 0 0 1 151.137 170.465 A 1.716 1.716 0 0 1 151.345 170.452 A 1.536 1.536 0 0 1 151.777 170.51 A 1.15 1.15 0 0 1 152.36 170.899 A 1.481 1.481 0 0 1 152.62 171.399 Q 152.684 171.605 152.708 171.852 A 3.226 3.226 0 0 1 152.722 172.163 Q 152.722 172.98 152.357 173.433 A 1.19 1.19 0 0 1 151.512 173.877 A 1.704 1.704 0 0 1 151.345 173.885 A 1.524 1.524 0 0 1 150.962 173.839 A 1.326 1.326 0 0 1 150.753 173.766 Q 150.485 173.646 150.303 173.398 Z M 158.871 173.41 L 158.871 173.795 Q 158.797 173.83 158.66 173.855 A 1.877 1.877 0 0 1 158.63 173.86 A 2.178 2.178 0 0 1 158.488 173.878 Q 158.421 173.885 158.361 173.885 A 1.287 1.287 0 0 1 158.344 173.885 Q 157.381 173.885 157.381 172.871 L 157.381 170.897 L 156.906 170.897 L 156.906 170.655 L 157.381 170.446 L 157.593 169.738 L 157.884 169.738 L 157.884 170.507 L 158.847 170.507 L 158.847 170.897 L 157.884 170.897 L 157.884 172.85 A 1.012 1.012 0 0 0 157.898 173.028 Q 157.916 173.125 157.954 173.203 A 0.487 0.487 0 0 0 158.026 173.31 A 0.467 0.467 0 0 0 158.313 173.463 A 0.672 0.672 0 0 0 158.417 173.471 A 1.65 1.65 0 0 0 158.658 173.453 A 1.522 1.522 0 0 0 158.674 173.451 Q 158.798 173.431 158.871 173.41 Z M 161.06 173.41 L 161.06 173.795 Q 160.986 173.83 160.849 173.855 A 1.877 1.877 0 0 1 160.819 173.86 A 2.178 2.178 0 0 1 160.677 173.878 Q 160.61 173.885 160.55 173.885 A 1.287 1.287 0 0 1 160.533 173.885 Q 159.57 173.885 159.57 172.871 L 159.57 170.897 L 159.095 170.897 L 159.095 170.655 L 159.57 170.446 L 159.782 169.738 L 160.073 169.738 L 160.073 170.507 L 161.035 170.507 L 161.035 170.897 L 160.073 170.897 L 160.073 172.85 A 1.012 1.012 0 0 0 160.087 173.028 Q 160.105 173.125 160.143 173.203 A 0.487 0.487 0 0 0 160.215 173.31 A 0.467 0.467 0 0 0 160.502 173.463 A 0.672 0.672 0 0 0 160.605 173.471 A 1.65 1.65 0 0 0 160.847 173.453 A 1.522 1.522 0 0 0 160.863 173.451 Q 160.987 173.431 161.06 173.41 Z M 156.055 173.43 A 1.402 1.402 0 0 0 156.222 173.201 Q 156.464 172.787 156.464 172.163 Q 156.464 171.373 156.054 170.91 A 1.316 1.316 0 0 0 155.443 170.516 A 1.689 1.689 0 0 0 154.947 170.446 A 1.952 1.952 0 0 0 154.597 170.476 A 1.329 1.329 0 0 0 153.821 170.899 Q 153.416 171.352 153.416 172.163 A 2.514 2.514 0 0 0 153.447 172.57 A 1.859 1.859 0 0 0 153.603 173.077 A 1.652 1.652 0 0 0 153.64 173.149 A 1.361 1.361 0 0 0 154.136 173.677 A 1.399 1.399 0 0 0 154.457 173.819 A 1.614 1.614 0 0 0 154.926 173.885 A 1.951 1.951 0 0 0 155.267 173.857 A 1.34 1.34 0 0 0 156.055 173.43 Z M 164.178 173.43 A 1.402 1.402 0 0 0 164.345 173.201 Q 164.586 172.787 164.586 172.163 Q 164.586 171.373 164.176 170.91 A 1.316 1.316 0 0 0 163.565 170.516 A 1.689 1.689 0 0 0 163.07 170.446 A 1.952 1.952 0 0 0 162.719 170.476 A 1.329 1.329 0 0 0 161.944 170.899 Q 161.538 171.352 161.538 172.163 A 2.514 2.514 0 0 0 161.569 172.57 A 1.859 1.859 0 0 0 161.726 173.077 A 1.652 1.652 0 0 0 161.762 173.149 A 1.361 1.361 0 0 0 162.258 173.677 A 1.399 1.399 0 0 0 162.58 173.819 A 1.614 1.614 0 0 0 163.049 173.885 A 1.951 1.951 0 0 0 163.389 173.857 A 1.34 1.34 0 0 0 164.178 173.43 Z M 153.936 172.163 A 2.545 2.545 0 0 0 153.96 172.526 Q 153.987 172.711 154.043 172.86 A 1.054 1.054 0 0 0 154.191 173.132 A 0.824 0.824 0 0 0 154.727 173.448 A 1.248 1.248 0 0 0 154.938 173.465 A 1.167 1.167 0 0 0 155.246 173.426 A 0.812 0.812 0 0 0 155.688 173.133 Q 155.943 172.802 155.943 172.163 A 2.507 2.507 0 0 0 155.92 171.806 Q 155.893 171.624 155.838 171.476 A 1.035 1.035 0 0 0 155.688 171.202 A 0.827 0.827 0 0 0 155.174 170.895 A 1.267 1.267 0 0 0 154.932 170.873 Q 154.439 170.873 154.187 171.197 Q 154.007 171.43 153.956 171.828 A 2.656 2.656 0 0 0 153.936 172.163 Z M 162.059 172.163 A 2.545 2.545 0 0 0 162.083 172.526 Q 162.11 172.711 162.166 172.86 A 1.054 1.054 0 0 0 162.313 173.132 A 0.824 0.824 0 0 0 162.849 173.448 A 1.248 1.248 0 0 0 163.061 173.465 A 1.167 1.167 0 0 0 163.369 173.426 A 0.812 0.812 0 0 0 163.81 173.133 Q 164.066 172.802 164.066 172.163 A 2.507 2.507 0 0 0 164.042 171.806 Q 164.016 171.624 163.96 171.476 A 1.035 1.035 0 0 0 163.81 171.202 A 0.827 0.827 0 0 0 163.296 170.895 A 1.267 1.267 0 0 0 163.055 170.873 Q 162.561 170.873 162.31 171.197 Q 162.129 171.43 162.078 171.828 A 2.656 2.656 0 0 0 162.059 172.163 Z M 150.725 170.998 A 0.668 0.668 0 0 0 150.53 171.168 A 0.86 0.86 0 0 0 150.406 171.406 Q 150.322 171.641 150.307 171.999 A 3.872 3.872 0 0 0 150.303 172.163 A 3.323 3.323 0 0 0 150.32 172.506 Q 150.356 172.853 150.472 173.064 A 0.758 0.758 0 0 0 150.537 173.163 A 0.729 0.729 0 0 0 150.906 173.413 Q 151.03 173.452 151.181 173.461 A 1.616 1.616 0 0 0 151.284 173.465 Q 151.747 173.465 151.974 173.127 A 1.154 1.154 0 0 0 152.117 172.818 Q 152.162 172.672 152.183 172.494 A 2.88 2.88 0 0 0 152.202 172.157 Q 152.202 171.509 151.974 171.191 A 0.733 0.733 0 0 0 151.508 170.896 A 1.162 1.162 0 0 0 151.272 170.873 Q 150.938 170.873 150.725 170.998 Z" id="bottom_labelLayer" stroke="#777777" fill="#777777" style="stroke:#777777;fill:#777777" vector-effect="non-scaling-stroke"/></g></svg>